<?xml version="1.0" encoding="utf-8"?>
<!-- Generator: Adobe Illustrator 16.0.0, SVG Export Plug-In . SVG Version: 6.00 Build 0)  -->
<!DOCTYPE svg PUBLIC "-//W3C//DTD SVG 1.1//EN" "http://www.w3.org/Graphics/SVG/1.1/DTD/svg11.dtd">
<svg version="1.1" id="Layer_1" xmlns="http://www.w3.org/2000/svg" xmlns:xlink="http://www.w3.org/1999/xlink" x="0px" y="0px"
	 width="500px" height="500px" viewBox="0 0 500 500" enable-background="new 0 0 500 500" xml:space="preserve">
<g>
	<path fill-rule="evenodd" clip-rule="evenodd" fill="#FFFEFE" d="M249.208,508.716c-104.199,0-208.399-0.247-312.594,0.331
		c-12.217,0.067-15.013-2.858-14.973-15.492c0.491-151.619,0.491-303.236,0-454.855c-0.04-12.635,2.759-15.512,14.97-15.482
		c208.398,0.449,416.798,0.449,625.195,0c12.207-0.03,15.01,2.847,14.968,15.482c-0.491,151.619-0.491,303.236,0,454.855
		c0.042,12.634-2.753,15.56-14.973,15.492C457.61,508.469,353.409,508.716,249.208,508.716z M183.34,462.14
		c5.546,0.647,11.903-0.299,16.518,2.201c36.34,19.665,63.619-6.262,93.502-19.132c6.334-2.737,12.835-3.35,19.521-1.666
		c23.713,4.997,47.91,14.125,68.396-8.541c4.894-0.479,9.781-0.965,14.672-1.448c15.18,8.835,31.804,5.252,47.158,3.073
		c12.043-1.719,25.09-13.57,19.699-26.628c-10.465-25.352-4.776-52.94-14.794-78.249c-5.55-14.009-6.853-31.262-4.912-46.348
		c0.893-6.918,14.816-11.46,21.765-18.244c20.376-19.883,38.879-40.988,32.629-73.643c0.05-5.615,0.09-11.234,0.135-16.85
		c2.35-43.405-25.652-85.466-69.03-103.685c-34.173-14.347-53.004-10.187-77.189,17.052c-1.579,1.389-3.156,2.78-4.735,4.17
		c-4.802,0.025-9.598,0.051-14.394,0.075c-7.509-1.542-10.576-8.03-14.337-13.751c-37.71-47.745-113.097-53.515-147.666-4.599
		c-2.217,6.499-7.731,9.5-12.838,12.931c-2.119,1.121-4.697,1.769-6.285,3.425c-14.398,15.049-27.578,19.978-47.374,17.419
		c-0.765-0.103-1.58,0.24-2.372,0.373c-10.362,0.076-20.725,0.155-31.087,0.227c-30.687,5.952-60.523,33.226-64.895,63.112
		c-9.778,66.894,19.225,121.89,79.852,142.621c10.833,3.703,16.105,7.482,18.034,19.32c5.606,34.49,11.997,68.865,19.14,103.053
		c1.966,9.395-0.085,23.252,15.263,24.42C152.923,462.602,168.13,462.372,183.34,462.14z"/>
	<path fill-rule="evenodd" clip-rule="evenodd" fill="#ED1D6B" d="M317.942,80.527c3.761,5.721,6.828,12.209,14.337,13.751
		c4.85,10.37,9.645,10.23,14.394-0.075c1.579-1.391,3.156-2.782,4.735-4.166c72.896-27.139,112.097-6.498,137.214,72.52
		c1.832,5.761,3.372,11.188,9.006,14.108c-0.045,5.616-0.085,11.234-0.135,16.856c-1.83,1.628-4.821,2.938-5.327,4.922
		c-8.399,32.933-23.551,60.185-55.208,74.984c-9.246,4.324-7.439,13.718-5.987,22.157c4.246,24.689,8.395,49.403,12.684,74.087
		c9.004,51.852,9.026,51.82-41.349,60.575c-2.234,0.387-4.247,2.173-6.357,3.307c-4.891,0.483-9.778,0.969-14.672,1.448
		c-23.368-2.04-46.069,1.656-68.396,8.541c-6.686-1.684-13.187-1.071-19.521,1.666c-13.752-5.907-31.828,7.266-41.585-4.608
		c-9.146-11.132-2.599-29.247-4.486-44.167c-1.685-13.327-2.082-26.887-4.564-40.035c-2.153-11.38,1.735-13.843,12.014-15.364
		c49.536-7.289,78.92-39.683,96.052-85.96c11.739-31.709,3.224-62.361-22.512-83.503c-26.25-21.567-55.748-27.564-87.14-15.841
		c-68.792,25.682-63.913,8.602-57.266,92.479c4.771,60.232,15.426,119.885,15.774,180.572c0.087,14.908-4.624,25.501-16.309,33.358
		c-15.21,0.232-30.417,0.462-45.626,0.688c-8.261-35.09-16.018-70.299-19.12-106.356c-2.23-25.911-9.438-43.056-38.668-51.43
		C5.163,283.638-0.902,174.688,34.968,136.488c10.511-11.197,25.257-15.09,35.352-26.186c10.362-0.071,20.726-0.15,31.092-0.23
		c34.672,23.936,39.686,22.041,56.026-21.213c5.107-3.431,10.622-6.432,12.838-12.931c33.589-19.589,68.587-29.875,106.511-15.018
		C290.879,66.432,304.244,73.93,317.942,80.527z"/>
	<path fill-rule="evenodd" clip-rule="evenodd" fill="#FDE4E9" d="M183.34,462.14c11.685-7.857,16.396-18.45,16.309-33.358
		c-0.348-60.688-11.003-120.34-15.774-180.572c-6.647-83.877-11.527-66.796,57.266-92.479c31.392-11.724,60.89-5.726,87.14,15.841
		c25.735,21.142,34.251,51.793,22.512,83.503c-17.132,46.277-46.516,78.671-96.052,85.96c-10.278,1.521-14.167,3.984-12.014,15.364
		c2.482,13.148,2.879,26.708,4.564,40.035c1.887,14.92-4.66,33.035,4.486,44.167c9.757,11.874,27.833-1.299,41.585,4.608
		c-29.884,12.87-57.162,38.797-93.502,19.132C195.243,461.841,188.886,462.787,183.34,462.14z M229.504,249.636
		c0.08,1.212,0.253,8.806,1.096,16.322c2.811,25.042,12.345,30.887,33.603,19.961c12.679-6.516,20.938-18.589,29.799-29.384
		c10.154-12.38,19.711-26.782,9.979-43.424c-10.209-17.447-27.97-18.936-45.386-16.241
		C236.093,200.341,228.184,213.765,229.504,249.636z"/>
	<path fill-rule="evenodd" clip-rule="evenodd" fill="#ED1B68" d="M70.32,110.302c-10.094,11.096-24.841,14.989-35.352,26.186
		c-35.87,38.2-29.806,147.149,44.957,168.554c29.231,8.374,36.438,25.519,38.668,51.43c3.103,36.058,10.859,71.267,19.12,106.356
		c-15.348-1.168-13.296-15.025-15.263-24.42c-7.144-34.188-13.534-68.563-19.14-103.053c-1.928-11.838-7.201-15.617-18.034-19.32
		c-60.627-20.73-89.63-75.727-79.852-142.621C9.796,143.528,39.633,116.254,70.32,110.302z"/>
	<path fill-rule="evenodd" clip-rule="evenodd" fill="#ED1B68" d="M395.948,433.554c2.11-1.134,4.123-2.92,6.357-3.307
		c50.375-8.755,50.353-8.724,41.349-60.575c-4.289-24.684-8.438-49.397-12.684-74.087c-1.452-8.439-3.259-17.833,5.987-22.157
		c31.657-14.799,46.809-42.051,55.208-74.984c0.506-1.984,3.497-3.294,5.327-4.922c6.25,32.649-12.253,53.754-32.629,73.637
		c-6.948,6.784-20.872,11.326-21.765,18.244c-1.94,15.086-0.638,32.339,4.912,46.348c10.018,25.309,4.329,52.897,14.794,78.249
		c5.391,13.058-7.656,24.909-19.699,26.628C427.752,438.806,411.128,442.389,395.948,433.554z"/>
	<path fill-rule="evenodd" clip-rule="evenodd" fill="#ED1B68" d="M497.628,176.666c-5.634-2.92-7.174-8.347-9.006-14.108
		c-25.117-79.018-64.317-99.659-137.214-72.52c24.186-27.244,43.017-31.404,77.189-17.057
		C471.976,91.199,499.978,133.26,497.628,176.666z"/>
	<path fill-rule="evenodd" clip-rule="evenodd" fill="#ED1B68" d="M317.942,80.527c-13.698-6.597-27.063-14.095-41.155-19.617
		c-37.923-14.857-72.922-4.571-106.511,15.018C204.846,27.013,280.232,32.782,317.942,80.527z"/>
	<path fill-rule="evenodd" clip-rule="evenodd" fill="#ED1B68" d="M157.438,88.859c-16.34,43.254-21.354,45.149-56.026,21.213
		c0.788-0.129,1.602-0.472,2.367-0.369c19.795,2.559,32.975-2.37,47.374-17.419C152.741,90.627,155.319,89.98,157.438,88.859z"/>
	<path fill-rule="evenodd" clip-rule="evenodd" fill="#FDE4E9" d="M312.881,443.543c22.326-6.885,45.027-10.581,68.396-8.541
		C360.791,457.668,336.594,448.54,312.881,443.543z"/>
	<path fill-rule="evenodd" clip-rule="evenodd" fill="#ED1B68" d="M346.673,94.204c-4.749,10.305-9.544,10.445-14.394,0.075
		C337.075,94.254,341.871,94.229,346.673,94.204z"/>
	<path fill-rule="evenodd" clip-rule="evenodd" fill="#ED1D6B" d="M229.504,249.636c-1.32-35.872,6.589-49.295,29.091-52.767
		c17.416-2.694,35.177-1.206,45.386,16.241c9.732,16.642,0.176,31.044-9.979,43.424c-8.86,10.795-17.12,22.868-29.799,29.384
		c-21.258,10.926-30.792,5.081-33.603-19.961C229.757,258.442,229.584,250.849,229.504,249.636z"/>
</g>
</svg>
