<?xml version="1.0" encoding="utf-8"?>
<!-- Generator: Adobe Illustrator 16.0.0, SVG Export Plug-In . SVG Version: 6.00 Build 0)  -->
<!DOCTYPE svg PUBLIC "-//W3C//DTD SVG 1.1//EN" "http://www.w3.org/Graphics/SVG/1.1/DTD/svg11.dtd">
<svg version="1.1" id="Layer_1" xmlns="http://www.w3.org/2000/svg" xmlns:xlink="http://www.w3.org/1999/xlink" x="0px" y="0px"
	 width="660px" height="346px" viewBox="0 0 660 346" enable-background="new 0 0 660 346" xml:space="preserve">
<path display="none" d="M0,0v346h660V0H0z"/>
<path fill="#FF0066" d="M474,32c8.561,4.454,10.246,12.086,11.417,21c2.535,19.3-11.303,42.135-20.817,58
	c-3.698,6.171-14.063,18.03-9.421,25.671c4.27,7.021,18.734,6.6,25.821,6.29c25.016-1.096,48.431-15.553,49-42.961
	c-13.717,2.055-25.665,8.96-40,9c13.518-20.43,31.8-47.347,29.91-73c-2.227-30.193-42-31.548-59.906-14.907
	c-11.788,10.955-17.126,29.516-7.871,43.903c3.539,5.5,9.485,8.655,15.867,9.678c2.5,0.4,6.44,0.667,7.867-1.992
	c1.989-3.706-3.003-11.76-3.854-15.682C470.098,48.147,471.731,40.555,474,32z"/>
<path fill="#FF0000" d="M499,11l1,1L499,11 M510,17l1,1L510,17z"/>
<path fill="#FFFFFF" d="M84,22l1,1L84,22z"/>
<path fill="#9B9B9B" d="M52,54c-14.933-12.978-32.83-5.772-40.677,11C0.182,88.813,10.859,130.535,41,133
	c0.117,2.73,0.499,5.314,1,8c1.282-3.083,0.763-5.792,0-9c3.32,5.419,2.848,10.962,4.079,17c2.732,13.4,5.808,28.331,5.921,42
	c11.298-0.57,22.805-3.119,34-4.777c15.965-2.365,32.091-3.959,48-6.611c5.634-0.938,11.331-1.807,17-2.527
	c3.58-0.455,7.153-0.109,8-4.083l2,4c1.294-4.206-0.15-9.641-0.718-14c-1.217-9.338-2.485-18.693-4.035-28
	c-0.742-4.451-2.705-10.479-1.84-14.957c1.07-5.537,10.447-9.178,13.627-14.043c8.191-12.534,8.67-28.79,5.29-43
	c-4.243-17.839-24.909-40.419-44.323-27.301c-2.892,1.953-5.016,4.49-7.001,7.3c-7.21-7.822-14.435-15.854-25-18.957
	C77.249,18.242,54.138,33.129,52,54z"/>
<path fill="#FF00FF" d="M517,26l1,1L517,26z"/>
<path fill="#FFFFFF" d="M111,32l1,1L111,32 M135,32l1,1L135,32 M112,33l1,1L112,33z"/>
<path fill="#FF00FF" d="M477,33l1,1L477,33z"/>
<path fill="#FF0000" d="M449,36l1,1L449,36z"/>
<path fill="#FF00FF" d="M481,37l1,1L481,37z"/>
<path fill="#FFFFFF" d="M165,46l1,1L165,46 M39,47l1,1L39,47 M16,56l1,1L16,56z"/>
<path fill="#FF0066" d="M266,133c3.075-9.084,4.367-19.52,5.918-29c0.653-3.988,1.311-8.38-1.482-11.771
	c-4.789-5.815-14.953-3.023-20.436,0.134c-13.701,7.888-20.354,24.689-22.573,39.637c-1.919,12.935-3.121,31.179,6.102,41.893
	c5.334,6.194,25.025,10.154,30.292,1.765c1.703-2.714,1.178-6.605,1.179-9.656v-21c16.974,9.858,36.46,0.795,46.073-15
	c11.282-18.536,11.5-44.315-5.112-59.826C295.081,60.015,279.534,56.005,265,56c-28.524-0.009-56.544,13.118-73.869,36
	c-8.01,10.58-11.912,22.056-14.051,35c-1.218,7.373-1.412,15.497,3.169,21.907c7.32,10.241,28.791,11.554,35.665,0.078
	c4.88-8.148,4.135-19.884,6.321-28.985c4.521-18.811,22.09-40.831,43.765-37.698c16.861,2.438,19.583,23.255,15.56,36.698
	C279.298,126.559,274.69,134.138,266,133z"/>
<path fill="#555555" d="M14,59l1,1L14,59z"/>
<path fill="#FF00FF" d="M485,59l1,1L485,59z"/>
<path fill="#FF0000" d="M236,60l1,1L236,60 M292,61l1,1L292,61 M294,62l1,1L294,62z"/>
<path fill="#FF0066" d="M344,65.519c-6.244,1.302-12.578,4.578-15.543,10.482c-5.902,11.75,6.652,17.76,16.543,15.608
	c5.558-1.208,11.502-5.325,13.775-10.649C363.282,70.408,354.022,63.429,344,65.519z"/>
<path fill="#FF0000" d="M302,67l1,1L302,67 M356,67l1,1L356,67z"/>
<path fill="#FF00FF" d="M310,75l1,1L310,75z"/>
<path fill="#FFFFFF" d="M175,78l1,1L175,78z"/>
<path fill="#FF0066" d="M377,145c20.736,19.775,56.137,7.988,72.381-12c5.108-6.285,8.964-13.429,11.804-21
	c1.059-2.817,2.658-6.845,0.783-9.678c-3.729-5.64-12.369,1.054-14.616,4.693c-6.985,11.314-11.095,22.113-23.352,29.105
	c-5.784,3.299-12.357,4.95-17.468-0.46C395.145,123.604,405.311,99.583,418,93c-0.292,5.633-2.598,10.374-5.773,15
	c-1.853,2.7-4.889,5.541-5.18,8.985c-0.404,4.788,4.951,7.376,8.953,7.812c7.546,0.822,15.802-3.563,19.867-9.812
	c8.085-12.432,2.75-29.994-11.867-34.195c-10.316-2.965-22.342,0.551-31,6.315c-9.091,6.052-15.523,15.627-18.91,25.895
	c-1.655,5.013-2.055,10.179-4.353,15c-1.97,4.128-6.561,13.876-12.255,13.555c-4.745-0.268-3.598-9.57-3.313-12.555
	c0.754-7.927,3.627-18.226,1.177-25.999c-3.444-10.935-17.335-9.251-24.24-2.787c-10.749,10.059-12.01,33.235-9.299,46.786
	c1.123,5.613,3.403,11.704,8.285,15.121c9.745,6.82,25.028,1.318,33.907-4.361C369.303,154.368,373.53,150.231,377,145z"/>
<path fill="#FF0000" d="M258,82l1,1L258,82 M399,83l1,1L399,83 M397,84l1,1L397,84z"/>
<path fill="#FF00FF" d="M355,85l1,1L355,85z"/>
<path fill="#FF0000" d="M392,87l1,1L392,87z"/>
<path fill="#7F7F7F" d="M174.333,88.667c-0.055,0.056-0.111,1.111,0.334,0.667C174.722,89.278,174.778,88.222,174.333,88.667z"/>
<path fill="#FF0000" d="M348,90l1,1L348,90 M236,93l1,1L236,93z"/>
<path fill="#FF00FF" d="M526,100l1,1L526,100z"/>
<path fill="#FF0000" d="M462,101l1,1L462,101z"/>
<path fill="#7F007F" d="M405,106l1,1L405,106z"/>
<path fill="#FFFFFF" d="M159,114l1,1L159,114z"/>
<path fill="#FF0000" d="M281,119l1,1L281,119 M407,120l1,1L407,120z"/>
<path fill="#6D6D6D" d="M154.333,122.667c-0.055,0.055-0.111,1.111,0.334,0.666C154.722,123.278,154.778,122.222,154.333,122.667
	 M155.333,129.667c-0.055,0.055-0.111,1.111,0.334,0.666C155.722,130.278,155.778,129.222,155.333,129.667z"/>
<path fill="#FFFFFF" d="M32,131l1,1L32,131z"/>
<path fill="#9D9D9D" d="M41.889,129.884c1.209,6.748,0.299,13.499,1.267,20.354c2.029,14.37,5.42,29.236,5.714,43.762
	c22.31-1.797,44.669-6.468,66.818-9.742c21.46-3.174,35.938-4.65,45.875-6.541l-1.995-6.106c-0.683,1.271-0.747,1.575-0.998,3.053
	c-35.674,2.874-71.201,10.684-106.708,15.266c-0.039-14.307-3.305-29.511-5.814-43.588
	C45.041,140.694,45.744,134.408,41.889,129.884z"/>
<path fill="#404040" d="M156,136l1,1L156,136z"/>
<path fill="#FF0000" d="M290,147l1,1L290,147 M287,148l1,1L287,148z"/>
<path fill="#7F7F7F" d="M158,150v4C158.71,152.24,158.71,151.759,158,150z"/>
<path fill="#FF0000" d="M419,152l1,1L419,152 M189,155l1,1L189,155 M207,155l1,1L207,155 M326,158l1,1L326,158 M362,158l1,1L362,158
	z"/>
<path fill="#555555" d="M160,164l1,1L160,164z"/>
<path fill="#CCCCCC" d="M45,166l1,1L45,166z"/>
<path fill="#FF0066" d="M637.389,201.704c-6.077,5.14-6.841,15.317-12.495,21.257c-1.65,1.734-5.528,6.016-8.291,4.158
	c-2.529-1.701-1.677-7.549-1.563-10.118c0.389-8.882,3.969-19.192,1.527-27.996c-1.834-6.606-9.564-8.274-15.566-7.562
	c-11.624,1.384-23.212,9.136-27,20.557c-1.361-3.986-1.872-8.631-5.225-11.566c-6.581-5.763-18.1-1.189-22.872,4.659
	c-6.199,7.597-5.805,16.076-8.526,24.907c-2.241,7.27-7.01,14.667-12.392,19.961c-6.696,6.585-20.043,16.408-28.336,6.71
	c-1.873-2.19-2.736-4.997-3.649-7.671c12.527,2.982,25.711-1.561,33.442-12c8.495-11.473,4.188-28.832-9.442-33.906
	c-22.147-8.244-44.856,11.063-51.91,30.906c-2.823,7.939-3.889,16.188-9.479,22.96c-1.747,2.115-4.551,5.044-7.501,5.208
	c-5.771,0.322-3.317-9.059-3.146-12.168c0.528-9.495,7.33-29.906-5.966-33.566c-14.953-4.117-31.801,7.4-35.999,21.566
	c-1.253-11.465,4.496-22.605,4.74-34c0.387-18.064-23.121-12.166-29.607-1.999c-9.789,15.347-6.329,35.304-10.746,51.999
	c-2.577,9.743-10.263,20.21-18.387,25.957c-3.621,2.561-7.569,4.868-11.961,5.764c-8.78,1.791-14.487-6.828-14.931-14.721
	c-0.631-11.174,5.756-27.212,16.892-31c-0.946,9.236-8.65,13.859-11.215,22c-1.396,4.434,2.072,8.005,6.219,8.771
	c3.359,0.621,7.713,0.539,10.996-0.41c21.923-6.336,18.928-41.387-4-43.27c-20.502-1.682-36.065,9.791-44.738,27.907
	c-2.167,4.526-2.85,9.252-4.301,14c-1.749,5.724-4.849,11.536-9.261,15.666c-1.582,1.479-4.088,3.483-6.382,2.313
	c-3.915-2.002-2.446-11.474-2.033-14.979c0.718-6.079,0.091-15.379,3.149-20.771c2.03-3.58,6.378-2.713,9.338-4.972
	c2.629-2.004,4.808-7.729,0.91-9.653C285.264,225.41,281.62,226,279,226c0.965-3.915,1.804-7.959,1.96-12
	c0.549-14.244-15.319-16.668-24.867-8.605c-7.623,6.437-6.742,15.396-10.796,23.459c-1.62,3.222-5.362,3.097-7.64,5.58
	c-4.901,5.342-0.063,9.269,5.343,9.566c-1.441,11.405-0.886,23.137-7.598,32.996c-1.698,2.495-8.989,11.783-11.799,5.813
	c-5.631-11.969,6.753-28.164-0.612-39.765c-4.811-7.577-15.905-5.619-21.948-0.649C193.77,248.374,191.075,258.997,191,268
	c-3.588,0.002-7.663-0.389-10.956,1.318c-5.42,2.809-6.704,10.55-9.073,15.682c-1.896,4.107-7.107,13.434-12.823,12.168
	c-2.386-0.527-2.945-3.083-2.761-5.173c0.454-5.136,3.52-9.669,3.429-14.995c-0.16-9.359-9.995-12.941-17.816-14
	c13.828-10.422,28.58-25.886,30.521-44c1.563-14.594-20.684-21.688-31.416-14.91c-6.996,4.418-6.412,15.71-7.719,22.91
	c-2.235,12.311-6.554,23.955-15.386,33c1.048-13.28,4.159-27.23-1.529-40c-7.753-17.405-31.065-14.309-45.471-8.127
	c-20.35,8.732-36.034,27.4-42.996,48.127c-3.081,9.17-4.813,20.748-1.024,29.996c5.832,14.232,27.361,12.304,35.367,0.988
	c4.501-6.361,2.313-14.828,1.738-21.984c-0.824-10.258-0.65-20.089,2.665-30c1.403-4.195,7.995-15.91,13.816-11.354
	c4.946,3.873,1.738,15.183,1.009,20.354c-0.75,5.318-0.792,11.997-3.089,16.91c-1.592,3.406-5.299,5.266-6.153,9.093
	c-0.841,3.769,1.896,6.509,1.928,10.087c0.055,6.212-3.416,15.385-6.178,20.895c-4.042,8.066-17.01,3.798-14.649,15.017
	c0.307,1.457,1.119,2.81,1.999,3.983c8.6,11.486,29.151,11.814,39.552,2.803c8.662-7.505,12.917-19.021,15.863-29.786
	c1.51-5.517,1.894-11.563,3.71-16.944c0.699-2.072,2.064-4.013,4.477-4.05c4.052-0.062,4.698,3.919,3.852,6.995
	c-2.692,9.791-9.383,21.327-2.083,30.895c4.969,6.514,13.688,7.139,21.196,7.104c21.472-0.096,43.177-17.486,47-38.999
	c3.25,6.744,2.493,14.722,7.637,20.786c9.205,10.854,30.106,3.813,39.363-3.314c3.484-2.684,6.4-5.936,10-8.472
	c3.239,8.185,11.724,10.851,20,9.562c12.863-2.004,24.488-8.896,32-19.562c20.799,21.985,55.304,6.694,73-11
	c2.575,10.83,16.959,17.808,25.722,8.771c3.479-3.586,4.158-9.189,5.622-13.771c2.411-7.544,6.297-14.534,8.656-22
	c2.764,9.265,0.716,20.317,8.213,27.786C431.727,284.249,459.753,269.96,467,256c21.766,20.637,54.301,8.313,73-10
	c3.109,9.143,19.384,18.182,27.297,8.721c2.781-3.324,3.285-8.652,4.333-12.721c1.985-7.711,4.602-17.291,10.37-23
	c0,8.26-0.591,16.666,3.995,23.999c6.138,9.817,19.177,9.649,29.005,5.935c14.907-5.634,24.968-17.427,30.988-31.934
	c1.653-3.988,3.889-8.573,3.858-12.98C649.802,197.23,641.133,198.538,637.389,201.704z M510.5,204.5c1,12-7,21-17,25
	C494.5,219.5,497.5,204.5,510.5,204.5z"/>
<path fill="#FF00FF" d="M590,184l1,1L590,184z"/>
<path fill="#7F7F7F" d="M115.667,185.333c-0.445,0.444,0.611,0.39,0.666,0.334C116.778,185.223,115.722,185.277,115.667,185.333z"/>
<path fill="#FFFFFF" d="M109,186l1,1L109,186 M102,187l1,1L102,187 M95,188l1,1L95,188z"/>
<path fill="#FF00FF" d="M556,188l1,1L556,188z"/>
<path fill="#FFFFFF" d="M88,189l1,1L88,189z"/>
<path fill="#FF00FF" d="M504,191l1,1L504,191z"/>
<path d="M572,203l1,1L572,203z"/>
<path fill="#FF0000" d="M162,204l1,1L162,204z"/>
<path fill="#FF0066" d="M210,209.637c-9.648,2.743-21.215,19.094-6.995,24.621c1.894,0.736,3.995,0.721,5.995,0.737
	c2.341,0.021,4.732,0.022,7-0.634c8.245-2.383,19.462-14.918,10.721-22.928C222.913,207.943,214.681,208.307,210,209.637z"/>
<path fill="#FF00FF" d="M252,209l1,1L252,209z"/>
<path fill="#FF0000" d="M632,210l1,1L632,210z"/>
<path fill="#FF00FF" d="M538,214l1,1L538,214z"/>
<path fill="#FF0000" d="M171,219l1,1L171,219 M627,220l1,1L627,220 M117,226l1,1L117,226 M245,229l1,1L245,229 M66,236l1,1L66,236
	 M65,239l1,1L65,239 M494,239l1,1L494,239 M629,240l1,1L629,240 M297,242l1,1L297,242z"/>
<path fill="#FF00FF" d="M620,246l1,1L620,246 M589,247l1,1L589,247z"/>
<path fill="#7F007F" d="M406,250l1,1L406,250z"/>
<path fill="#FF0000" d="M449,252l1,1L449,252 M532,252l1,1L532,252 M62,256l1,1L62,256 M327,256l1,1L327,256 M224,257l1,1L224,257z"
	/>
<path fill="#FF00FF" d="M241,257l1,1L241,257 M351,268l1,1L351,268 M277,278l1,1L277,278z"/>
<path d="M189,279l1,1L189,279z"/>
<path fill="#FF0000" d="M158,280l1,1L158,280 M189,280l1,1L189,280z"/>
<path fill="#FF00FF" d="M356,281l1,1L356,281 M231,282l1,1L231,282 M299,283l1,1L299,283 M300,284l1,1L300,284z"/>
<path fill="#FF0000" d="M62,289l1,1L62,289 M338,289l1,1L338,289 M239,295l1,1L239,295 M278,296l1,1L278,296 M108,301l1,1L108,301
	 M116,302l1,1L116,302z"/>
<path fill="#FF00FF" d="M105,309l1,1L105,309 M58,311l1,1L58,311 M85,331l1,1L85,331 M69,332l1,1L69,332z"/>
</svg>
