<?xml version="1.0" encoding="utf-8"?>
<!-- Generator: Adobe Illustrator 16.0.0, SVG Export Plug-In . SVG Version: 6.00 Build 0)  -->
<!DOCTYPE svg PUBLIC "-//W3C//DTD SVG 1.1//EN" "http://www.w3.org/Graphics/SVG/1.1/DTD/svg11.dtd">
<svg version="1.1" id="Layer_1" xmlns="http://www.w3.org/2000/svg" xmlns:xlink="http://www.w3.org/1999/xlink" x="0px" y="0px"
	 width="500px" height="500px" viewBox="0 0 500 500" enable-background="new 0 0 500 500" xml:space="preserve">
<g>
	<path fill="#ED1D6B" d="M317.942,80.527c3.761,5.721,6.827,12.209,14.337,13.751c4.85,10.37,9.645,10.23,14.394-0.075
		c1.579-1.391,3.156-2.782,4.735-4.166c72.896-27.139,112.097-6.498,137.214,72.52c1.832,5.761,3.372,11.188,9.006,14.108
		c-0.045,5.616-0.085,11.234-0.135,16.856c-1.83,1.628-4.821,2.938-5.327,4.922c-8.399,32.933-23.551,60.185-55.208,74.984
		c-9.246,4.324-7.439,13.718-5.987,22.157c4.246,24.689,8.396,49.402,12.685,74.087c9.004,51.853,9.025,51.82-41.35,60.575
		c-2.233,0.387-4.247,2.173-6.356,3.307c-4.892,0.483-9.778,0.97-14.672,1.448c-23.368-2.04-46.069,1.656-68.396,8.541
		c-6.686-1.684-13.188-1.071-19.521,1.666c-13.752-5.907-31.827,7.266-41.584-4.608c-9.146-11.132-2.6-29.246-4.486-44.167
		c-1.685-13.327-2.082-26.887-4.564-40.034c-2.153-11.381,1.735-13.844,12.014-15.364c49.536-7.289,78.92-39.683,96.052-85.96
		c11.739-31.709,3.224-62.361-22.512-83.503c-26.25-21.567-55.748-27.564-87.14-15.841c-68.792,25.682-63.913,8.602-57.266,92.479
		c4.771,60.232,15.426,119.885,15.774,180.572c0.087,14.908-4.624,25.501-16.309,33.357c-15.21,0.232-30.417,0.463-45.626,0.688
		c-8.261-35.09-16.018-70.3-19.12-106.356c-2.23-25.91-9.438-43.056-38.668-51.43C5.163,283.639-0.902,174.688,34.968,136.488
		c10.511-11.197,25.257-15.09,35.352-26.186c10.362-0.071,20.726-0.15,31.092-0.229c34.672,23.936,39.686,22.041,56.026-21.213
		c5.107-3.431,10.622-6.432,12.838-12.931c33.589-19.589,68.587-29.875,106.511-15.018C290.879,66.432,304.244,73.93,317.942,80.527
		z"/>
	<path fill="#FFFFFF" d="M183.34,462.14c11.685-7.856,16.396-18.449,16.309-33.357c-0.348-60.688-11.003-120.341-15.774-180.572
		c-6.647-83.877-11.527-66.796,57.266-92.479c31.392-11.724,60.89-5.726,87.14,15.841c25.734,21.142,34.251,51.793,22.512,83.503
		c-17.132,46.276-46.516,78.671-96.052,85.96c-10.278,1.521-14.167,3.984-12.014,15.363c2.482,13.148,2.879,26.709,4.564,40.035
		c1.887,14.921-4.66,33.035,4.486,44.167c9.757,11.874,27.832-1.299,41.584,4.608c-29.883,12.87-49.611,12.291-93.501,16.132
		C180.286,462.213,188.886,462.787,183.34,462.14z M229.504,249.636c0.08,1.212,0.253,8.806,1.096,16.322
		c2.811,25.042,12.345,30.888,33.603,19.961c12.679-6.517,20.938-18.589,29.799-29.384c10.154-12.38,19.711-26.782,9.979-43.424
		c-10.209-17.447-27.969-18.936-45.385-16.241C236.093,200.341,228.184,213.765,229.504,249.636z"/>
	<path fill="#ED1B68" d="M71.32,110.302c-10.094,11.096-24.841,14.989-35.352,26.186c-35.87,38.2-29.806,147.149,44.957,168.554
		c29.231,8.374,36.438,25.519,38.668,51.431c3.103,36.057,10.859,71.267,19.12,106.355c-15.348-1.168-13.296-15.025-15.263-24.42
		c-7.144-34.188-13.534-68.563-19.14-103.053c-1.928-11.838-7.201-15.617-18.034-19.32c-60.627-20.73-89.63-75.727-79.852-142.621
		C10.796,143.528,40.633,116.254,71.32,110.302z"/>
	<path fill="#ED1B68" d="M394.948,433.554c2.109-1.134,4.123-2.92,6.356-3.307c50.375-8.755,50.354-8.724,41.35-60.575
		c-4.289-24.684-8.438-49.396-12.685-74.087c-1.452-8.438-3.259-17.833,5.987-22.157c31.657-14.799,46.809-42.051,55.208-74.984
		c0.506-1.984,3.497-3.294,5.327-4.922c6.25,32.649-12.253,53.754-32.629,73.637c-6.948,6.784-20.872,11.325-21.766,18.243
		c-1.939,15.086-0.638,32.34,4.912,46.349c10.019,25.31,4.329,52.897,14.794,78.249c5.243,12.699-10.175,25.269-19.698,26.628
		C426.752,438.806,410.128,442.389,394.948,433.554z"/>
	<path fill="#ED1B68" d="M497.628,176.666c-5.634-2.92-7.174-8.347-9.006-14.108c-25.117-79.018-64.317-99.659-137.214-72.52
		c24.186-27.244,43.017-31.404,77.188-17.057C471.976,91.199,499.978,133.26,497.628,176.666z"/>
	<path fill="#ED1B68" d="M317.942,80.527c-13.698-6.597-27.063-14.095-41.155-19.617c-37.923-14.857-72.922-4.571-106.511,15.018
		C204.846,27.013,280.232,32.782,317.942,80.527z"/>
	<path fill="#ED1B68" d="M157.438,88.859c-16.34,43.254-21.354,45.149-56.026,21.213c0.788-0.129,1.602-0.472,2.367-0.369
		c19.795,2.559,32.975-2.37,47.374-17.419C152.741,90.627,155.319,89.98,157.438,88.859z"/>
	<path fill="#ED1B68" d="M346.673,94.204c-4.749,10.305-9.544,10.445-14.394,0.075C337.075,94.254,341.871,94.229,346.673,94.204z"
		/>
	<path fill="#ED1D6B" d="M229.504,249.636c-1.32-35.872,6.589-49.295,29.092-52.767c17.415-2.694,35.176-1.206,45.385,16.241
		c9.732,16.642,0.177,31.044-9.979,43.424c-8.859,10.795-17.12,22.868-29.799,29.384c-21.258,10.926-30.792,5.081-33.603-19.961
		C229.757,258.441,229.584,250.85,229.504,249.636z"/>
</g>
</svg>
